<svg xmlns="http://www.w3.org/2000/svg" viewBox="0 0 32 32" width="32" height="32">
  <rect width="32" height="32" rx="6" fill="#1a1a1a"/>
  <g transform="translate(4,4)">
    <rect x="0" y="0" width="6" height="6" fill="#fff"/>
    <rect x="6" y="0" width="6" height="6" fill="#333"/>
    <rect x="12" y="0" width="6" height="6" fill="#fff"/>
    <rect x="18" y="0" width="6" height="6" fill="#333"/>
    <rect x="0" y="6" width="6" height="6" fill="#333"/>
    <rect x="6" y="6" width="6" height="6" fill="#fff"/>
    <rect x="12" y="6" width="6" height="6" fill="#333"/>
    <rect x="18" y="6" width="6" height="6" fill="#fff"/>
    <rect x="0" y="12" width="6" height="6" fill="#fff"/>
    <rect x="6" y="12" width="6" height="6" fill="#333"/>
    <rect x="12" y="12" width="6" height="6" fill="#fff"/>
    <rect x="18" y="12" width="6" height="6" fill="#333"/>
    <rect x="0" y="18" width="6" height="6" fill="#333"/>
    <rect x="6" y="18" width="6" height="6" fill="#fff"/>
    <rect x="12" y="18" width="6" height="6" fill="#333"/>
    <rect x="18" y="18" width="6" height="6" fill="#fff"/>
  </g>
</svg>
